<svg xmlns="http://www.w3.org/2000/svg" xmlns:xlink="http://www.w3.org/1999/xlink" version="1.1" x="0px" y="0px" width="100px" height="100px" viewBox="0 0 100 100" enable-background="new 0 0 100 100" xml:space="preserve">
<g id="Captions">
</g>
<g id="Your_Icon">
	<path d="M98.974,38.327l-7.89-11.343c-0.031-0.045-0.076-0.08-0.111-0.122c-0.052-0.063-0.101-0.126-0.16-0.183   c-0.023-0.021-0.042-0.045-0.065-0.065c-0.049-0.042-0.105-0.071-0.157-0.108c-0.048-0.033-0.086-0.076-0.137-0.106   c-0.027-0.016-0.058-0.021-0.085-0.036c-0.007-0.003-0.012-0.009-0.019-0.012c-0.021-0.011-0.036-0.028-0.058-0.038L49.96,7.377   c-0.077-0.036-0.157-0.062-0.236-0.087c-0.019-0.006-0.037-0.015-0.056-0.021c-0.045-0.013-0.092-0.021-0.137-0.03   c-0.036-0.008-0.071-0.015-0.107-0.021c-0.066-0.01-0.131-0.019-0.197-0.022c-0.033-0.002-0.066-0.001-0.1-0.002   c-0.047,0-0.095-0.005-0.143-0.002c-0.003,0-0.007,0.001-0.01,0.001c-0.092,0.006-0.181,0.021-0.27,0.039   c-0.011,0.002-0.021,0.002-0.032,0.005c-0.042,0.009-0.081,0.025-0.122,0.037c-0.035,0.01-0.068,0.02-0.102,0.032   c-0.07,0.024-0.137,0.053-0.203,0.084c-0.016,0.008-0.034,0.01-0.051,0.018L9.86,27.11c-0.004,0.002-0.008,0.005-0.012,0.008   c-0.025,0.013-0.049,0.03-0.075,0.045c-0.014,0.005-0.028,0.01-0.041,0.018c-0.024,0.015-0.044,0.035-0.066,0.053   c-0.096,0.064-0.186,0.137-0.271,0.218c-0.006,0.006-0.014,0.01-0.02,0.016c-0.006,0.006-0.01,0.014-0.016,0.02   c-0.108,0.109-0.205,0.23-0.288,0.366c-0.006,0.009-0.014,0.017-0.019,0.026c-0.001,0.002-0.002,0.005-0.003,0.008   c-0.012,0.021-0.028,0.038-0.04,0.059l-9.017,16.876c-0.52,0.973-0.154,2.183,0.818,2.705L9,51.924v14.177v2.214   c0,0.736,0.292,1.414,0.941,1.762L50.216,91.73c0.101,0.054,0.18,0.086,0.286,0.121c0.049,0.017,0.08,0.044,0.131,0.057   c0.16,0.04,0.316,0.061,0.479,0.061c0.184,0,0.362-0.027,0.54-0.077c0.058-0.017,0.107-0.05,0.164-0.071   c0.107-0.04,0.216-0.074,0.316-0.135c0.011-0.006,0.017-0.016,0.026-0.021c0.009-0.006,0.019-0.007,0.027-0.013l38.337-24.631   c0.011-0.007,0.019-0.018,0.029-0.024c0.126-0.084,0.242-0.18,0.346-0.289c0.016-0.018,0.027-0.038,0.043-0.056   c0.084-0.095,0.157-0.197,0.222-0.308c0.022-0.038,0.042-0.078,0.062-0.117c0.05-0.1,0.09-0.203,0.122-0.312   c0.013-0.041-0.193-0.079-0.184-0.121C91.197,65.646,91,65.495,91,65.338V38.802l5.229,2.462c0.281,0.138,0.693,0.205,0.992,0.205   c0.569,0,1.183-0.243,1.572-0.696C99.388,40.081,99.494,39.075,98.974,38.327z M11.61,31.569l36.812,18.957L41.23,64.69   L4.462,44.947L11.61,31.569z M13,67.118V54.072l28.141,15.11c0.294,0.158,0.619,0.238,0.946,0.238c0.201,0,0.403-0.03,0.599-0.092   c0.514-0.161,0.941-0.522,1.185-1.003L49,58.222v28.403L13,67.118z M87,64.246L53,86.307V50.828l34-19.285V64.246z"/>
</g>
</svg>