<svg xmlns="http://www.w3.org/2000/svg" xmlns:xlink="http://www.w3.org/1999/xlink" version="1.1" id="Layer_1" x="0px" y="0px" width="80px" height="80px" viewBox="0 0 80 80" enable-background="new 0 0 80 80" xml:space="preserve">
<g>
	<path d="M76.639,33.667c-0.395-0.197-2.46-0.573-4.159-0.128c-0.337-0.278-0.819-0.341-1.224-0.118   c-1.071,0.595-2.209,2.461-3.955,5.464c-0.885,1.523-1.889,3.249-2.408,3.737c-0.866,0.738-6.454-0.235-7.58-0.658   c-0.238-0.146-1.167-0.984-1.914-1.658c-1.935-1.744-3.37-3.01-4.219-3.406c-0.693-0.326-1.243-0.582-1.946-0.183   c-0.099,0.056-0.364,0.074-0.569,0.08c-1.929,0.051-2.988,0.843-3.103,0.933c-0.021,0.017-0.03,0.041-0.05,0.058   c-1.036-0.163-2.031-0.627-2.832-1.426c-0.812-0.814-1.296-1.83-1.455-2.886c0.014-0.015,0.033-0.021,0.045-0.037   c0.09-0.114,0.883-1.174,0.936-3.103c0.006-0.206,0.024-0.471,0.08-0.569c0.399-0.704,0.155-1.225-0.182-1.943   c-0.396-0.851-1.661-2.285-3.404-4.217c-0.675-0.748-1.515-1.679-1.625-1.842c-1.072-2.804-1.011-7.284-0.694-7.654   c0.488-0.52,2.212-1.522,3.733-2.407c3.005-1.747,4.873-2.885,5.467-3.958c0.225-0.405,0.16-0.888-0.118-1.224   c0.445-1.7,0.068-3.765-0.129-4.159c-0.132-0.264-0.445-0.364-0.712-0.24c-0.268,0.124-0.384,0.449-0.269,0.721   c0.102,0.241,0.412,1.942,0.081,3.311c-0.312,0.056-0.6,0.231-0.766,0.531c-0.346,0.624-3.042,2.191-4.654,3.128   c-1.89,1.099-3.521,2.047-4.228,2.8c-2.029,2.158,0.243,9.93,0.273,10c0.167,0.391,0.629,0.92,2.016,2.457   c1.031,1.143,2.757,3.057,3.046,3.678c0.045,0.096,0.083,0.176,0.113,0.244c-0.12,0.299-0.199,0.679-0.216,1.283   c-0.03,1.1-0.386,1.683-0.458,1.791c-0.743,0.213-1.522,0.453-2.34,0.725l-2.406-2.689c-0.152-0.17-0.354-0.289-0.578-0.338   c-3.419-0.76-7.346-1.763-7.991-2.121c-0.534-0.352-2.288-3.112-2.693-5.31c-0.139-0.753-0.064-1.194,0.052-1.355   c0.353-0.49,0.241-1.173-0.249-1.526c-0.491-0.353-1.173-0.242-1.526,0.249c-0.563,0.782-0.685,1.907-0.363,3.345   c0.553,2.468,2.458,5.811,3.706,6.502c1.166,0.649,6.501,1.881,8.246,2.273l1.573,1.758c-1.343,0.499-2.728,1.056-4.112,1.665   l-3.495-1.588c-0.265-0.121-0.565-0.131-0.835-0.029c-3.745,1.399-9.759,3.097-11.403,2.498c-2.163-0.789-2.759-2.971-2.782-3.058   c-0.147-0.585-0.741-0.942-1.326-0.795c-0.586,0.146-0.942,0.74-0.795,1.326c0.035,0.138,0.882,3.388,4.153,4.581   c0.457,0.167,1.035,0.239,1.696,0.238c3.374,0,8.857-1.879,10.796-2.584l1.375,0.625c-1.351,0.664-2.656,1.371-3.882,2.106   c-0.118-0.089-0.253-0.157-0.406-0.192c-0.386-0.091-3.828-0.831-5.649,0.883l-0.416,0.391c-1.648,1.55-6.026,5.667-7.422,6.674   c-0.694,0.501-2.859,0.833-4.778,0.981c0.342-1.357,0.531-3.316-0.502-4.975c-0.319-0.512-0.994-0.67-1.506-0.35   c-0.512,0.319-0.669,0.993-0.35,1.506c1.106,1.775-0.175,4.492-0.187,4.517c-0.167,0.344-0.143,0.748,0.063,1.069   c0.201,0.313,0.548,0.502,0.919,0.502c0.009,0,0.018,0,0.026,0c0.958-0.023,5.827-0.204,7.592-1.478   c1.332-0.961,4.61-4.005,7.641-6.855l0.414-0.389c0.398-0.375,1.137-0.505,1.876-0.518c-0.924,0.675-1.764,1.364-2.462,2.062   c-6.627,6.626-7.282,16.719-3.494,20.508c3.785,3.785,13.876,3.131,20.503-3.497c0.814-0.814,1.614-1.816,2.392-2.934   c0.083,0.954,0.031,2.155-0.486,2.705l-0.282,0.3c-2.723,2.893-5.976,6.388-6.965,7.756c-1.273,1.767-1.454,6.633-1.478,7.591   c-0.009,0.38,0.181,0.737,0.5,0.943c0.18,0.116,0.386,0.175,0.594,0.175c0.162,0,0.324-0.035,0.474-0.107   c0.027-0.014,2.746-1.292,4.522-0.188c0.512,0.319,1.186,0.162,1.505-0.35c0.319-0.513,0.163-1.187-0.35-1.506   c-1.66-1.035-3.619-0.846-4.976-0.503c0.149-1.918,0.48-4.082,0.981-4.775c1.032-1.429,5.21-5.866,6.784-7.537l0.284-0.302   c1.712-1.822,0.973-5.265,0.883-5.651c-0.078-0.336-0.311-0.583-0.599-0.721c0.783-1.314,1.531-2.726,2.233-4.181l0.904,1.989   c-0.844,2.318-3.366,9.705-2.348,12.491c1.194,3.272,4.443,4.119,4.581,4.153c0.089,0.022,0.178,0.033,0.266,0.033   c0.489,0,0.936-0.332,1.06-0.829c0.146-0.585-0.21-1.179-0.796-1.325c-0.022-0.006-2.256-0.587-3.057-2.782   c-0.601-1.644,1.1-7.657,2.499-11.402c0.101-0.271,0.091-0.572-0.029-0.835l-1.756-3.861c-0.036-0.078-0.095-0.135-0.145-0.2   c0.571-1.317,1.097-2.632,1.572-3.907l2.162,1.936c0.393,1.743,1.625,7.08,2.274,8.247c0.697,1.253,4.045,3.158,6.513,3.708   c0.518,0.115,0.993,0.173,1.428,0.173c0.77,0,1.408-0.181,1.906-0.54c0.489-0.354,0.6-1.037,0.247-1.526   c-0.354-0.489-1.037-0.601-1.526-0.247c-0.159,0.118-0.597,0.192-1.35,0.054c-2.197-0.403-4.961-2.158-5.308-2.684   c-0.364-0.654-1.367-4.583-2.127-8.003c-0.05-0.223-0.168-0.425-0.338-0.577l-3.089-2.765c0.208-0.613,0.398-1.203,0.575-1.774   c0.18-0.022,0.356-0.072,0.513-0.185c0.025-0.019,0.631-0.447,1.826-0.479c0.6-0.017,0.979-0.094,1.283-0.217   c0.068,0.031,0.149,0.069,0.247,0.115c0.62,0.289,2.536,2.017,3.681,3.049c1.619,1.46,2.071,1.849,2.451,2.011   c0.049,0.021,3.789,1.117,6.803,1.116c1.339,0,2.535-0.216,3.199-0.84c0.754-0.708,1.704-2.341,2.804-4.232   c0.936-1.61,2.503-4.306,3.125-4.651c0.299-0.166,0.475-0.454,0.53-0.766c1.368-0.332,3.07-0.021,3.304,0.078   c0.268,0.135,0.598,0.027,0.733-0.244C77.019,34.13,76.909,33.802,76.639,33.667z"/>
	<path d="M43.527,30.524c-1.357,1.358-1.357,3.56,0,4.916c1.358,1.359,3.56,1.359,4.918,0.001c0.506-0.506,0.822-1.13,0.951-1.783   c2.397-1.588,0.188-4.186,0.188-4.186c0.129,1.058-0.317,1.44-0.708,1.582c-0.124-0.186-0.268-0.364-0.432-0.529   c-0.137-0.137-0.287-0.25-0.438-0.358c0.146-0.387,0.53-0.822,1.578-0.694c0,0-2.515-2.131-4.107,0.083   C44.764,29.659,44.076,29.975,43.527,30.524z"/>
</g>
</svg>